<svg width="99" height="99" viewBox="0 0 99 99" fill="none" xmlns="http://www.w3.org/2000/svg">
<path d="M9.87856 45.9748L5.85436 49.06C5.17103 49.584 4.19224 49.4547 3.66824 48.7714L1.77119 46.2971C1.24719 45.6136 1.37635 44.6348 2.05988 44.1108L45.7038 10.6494C47.9427 8.93295 51.055 8.93295 53.2937 10.6494L96.9378 44.111C97.6214 44.635 97.7505 45.6138 97.2265 46.2973L95.3295 48.7716C94.8055 49.4549 93.8267 49.5842 93.1434 49.0602L49.4989 15.6004L15.194 41.8998" stroke="white" stroke-width="2.90039" stroke-miterlimit="10" stroke-linecap="round" stroke-linejoin="round"/>
<path d="M5.85547 49.0621L8.70133 52.7748C9.22534 53.4583 10.2041 53.5877 10.8876 53.0637L49.5 23.4613L88.1123 53.0637C88.7958 53.5877 89.7746 53.4583 90.2986 52.7748L93.1445 49.0621" stroke="white" stroke-width="2.90039" stroke-miterlimit="10" stroke-linecap="round" stroke-linejoin="round"/>
<path d="M7.39844 89.637C7.39844 86.1923 10.1909 83.3998 13.6356 83.3998H85.364C88.8087 83.3998 91.6012 86.1923 91.6012 89.637" stroke="white" stroke-width="2.90039" stroke-miterlimit="10" stroke-linecap="round" stroke-linejoin="round"/>
<path d="M13.6367 51.1713V83.4002" stroke="white" stroke-width="2.90039" stroke-miterlimit="10" stroke-linecap="round" stroke-linejoin="round"/>
<path d="M85.3633 51.1713V83.4002" stroke="white" stroke-width="2.90039" stroke-miterlimit="10" stroke-linecap="round" stroke-linejoin="round"/>
<path d="M19.875 52.2122V83.3984" stroke="white" stroke-width="2.90039" stroke-miterlimit="10" stroke-linecap="round" stroke-linejoin="round"/>
<path d="M79.125 58.4492V83.3981" stroke="white" stroke-width="2.90039" stroke-miterlimit="10" stroke-linecap="round" stroke-linejoin="round"/>
<path d="M52.6172 45.9745V26.1072" stroke="white" stroke-width="2.90039" stroke-miterlimit="10" stroke-linecap="round" stroke-linejoin="round"/>
<path d="M46.3789 45.9745V26.1072" stroke="white" stroke-width="2.90039" stroke-miterlimit="10" stroke-linecap="round" stroke-linejoin="round"/>
<path d="M52.6211 83.3984V52.2122" stroke="white" stroke-width="2.90039" stroke-miterlimit="10" stroke-linecap="round" stroke-linejoin="round"/>
<path d="M46.3789 83.3984V52.2122" stroke="white" stroke-width="2.90039" stroke-miterlimit="10" stroke-linecap="round" stroke-linejoin="round"/>
<path d="M13.6367 52.2122H85.3649" stroke="white" stroke-width="2.90039" stroke-miterlimit="10" stroke-linecap="round" stroke-linejoin="round"/>
<path d="M20.6992 45.9753H78.2994" stroke="white" stroke-width="2.90039" stroke-miterlimit="10" stroke-linecap="round" stroke-linejoin="round"/>
<path d="M40.1432 58.4492H26.1094V72.483H40.1432V58.4492Z" stroke="white" stroke-width="2.90039" stroke-miterlimit="10" stroke-linecap="round" stroke-linejoin="round"/>
<path d="M58.8555 83.3981V58.4492H72.8893V83.3981" stroke="white" stroke-width="2.90039" stroke-miterlimit="10" stroke-linecap="round" stroke-linejoin="round"/>
<path d="M26.1094 64.6861H38.584" stroke="white" stroke-width="2.90039" stroke-miterlimit="10" stroke-linecap="round" stroke-linejoin="round"/>
<path d="M63.5312 69.3645V72.4832" stroke="white" stroke-width="2.90039" stroke-miterlimit="10" stroke-linecap="round" stroke-linejoin="round"/>
<path d="M2.72266 89.6367H96.2811" stroke="white" stroke-width="2.90039" stroke-miterlimit="10" stroke-linecap="round" stroke-linejoin="round"/>
<path d="M22.9922 17.9077V27.2635" stroke="white" stroke-width="2.90039" stroke-miterlimit="10" stroke-linecap="round" stroke-linejoin="round"/>
<path d="M13.6367 35.06V17.9077" stroke="white" stroke-width="2.90039" stroke-miterlimit="10" stroke-linecap="round" stroke-linejoin="round"/>
<path d="M22.9902 17.9081H13.6343C11.9119 17.9081 10.5156 16.5119 10.5156 14.7894C10.5156 13.067 11.9119 11.6707 13.6343 11.6707H22.9902C24.7126 11.6707 26.1089 13.067 26.1089 14.7894C26.1087 16.5119 24.7125 17.9081 22.9902 17.9081Z" stroke="white" stroke-width="2.90039" stroke-miterlimit="10" stroke-linecap="round" stroke-linejoin="round"/>
</svg>
