<svg width="132" height="26" viewBox="0 0 132 26" fill="none" xmlns="http://www.w3.org/2000/svg">
<g clip-path="url(#clip0_4074_8069)">
<path d="M66.6868 3.71451H63.1714V22.4104H66.6868V3.71451Z" fill="#327955"/>
<path d="M54.6249 3.71451H51.1094V22.4104H54.6249V3.71451Z" fill="#327955"/>
<path d="M63.1719 10.6518H54.6267V13.9204H63.1719V10.6518Z" fill="#327955" shape-rendering="crispEdges" />
<path d="M83.2247 9.37662V12.4029H74.0425V19.3836H70.5337V9.37662H83.2247Z" fill="#327955" shape-rendering="crispEdges" />
<path d="M74.0425 19.3871H70.5337V22.4134H74.0425V19.3871Z" fill="#327955"/>
<path d="M83.2234 12.4019H79.7083V22.4119H83.2234V12.4019Z" fill="#327955"/>
<path d="M79.7086 19.3871H70.5337V22.4134H79.7086V19.3871Z" fill="#327955" shape-rendering="crispEdges" />
<path d="M128.324 22.4134V19.3871H117.89V22.4134H128.324Z" fill="#327955"/>
<path d="M128.324 12.4029V9.37662H117.89V12.4029H128.324Z" fill="#327955"/>
<path d="M128.324 17.4067V14.3804H117.89V17.4067H128.324Z" fill="#327955"/>
<path d="M121.408 9.37662H117.892V22.413H121.408V9.37662Z" fill="#327955"/>
<path d="M114.046 19.3843H103.609V22.4106H114.046V19.3843Z" fill="#327955"/>
<path d="M114.046 14.3804V19.3824H110.537V17.4067H107.125V14.3804H114.046Z" fill="#327955" shape-rendering="crispEdges" />
<path d="M103.609 9.37662V12.3998V17.4079H107.125V12.3998H114.046V9.37662H103.609Z" fill="#327955" shape-rendering="crispEdges" />
<path d="M86.9988 7.03409H87.0412L86.9988 7.07018V7.03409Z" fill="#327955"/>
<path d="M87.0412 7.03409L86.9988 7.07018V7.03409H87.0412Z" fill="#327955"/>
<path d="M28.2424 12.2843V19.3877H22.579V12.2843H19.0635V19.3877V22.414H22.579H28.2424H31.7579V19.3877V12.2843H28.2424Z" fill="#327955"/>
<path d="M3.60571 22.3286V3.71451H16.08V6.87926H7.27459V11.7301H15.2195V14.7879H7.27459V22.338L3.60571 22.3286Z" fill="#327955"/>
<path d="M35.604 22.3279V8.72211H39.2262V22.3279H35.604Z" fill="#327955"/>
<path d="M43.073 22.3303V5.78619H46.6952V22.3303H43.073Z" fill="#327955"/>
<path d="M95.0351 6.19499V6.18552L93.424 4.67557L91.8128 6.19499L87.0798 10.6495H90.3057L93.424 7.71441L96.5359 10.6495H99.7582L95.0351 6.19499Z" fill="#327955"/>
<path d="M96.2491 12.2815V19.3848H90.5857V12.2815H87.0706V19.3848V22.4111H90.5857H96.2491H99.7643V19.3848V12.2815H96.2491Z" fill="#327955"/>
<path d="M96.2493 12.2909V19.3848H90.5923V12.2909H87.0798V19.3848V22.408H90.5923H96.2493H99.7609V19.3848V12.2909H96.2493Z" fill="#327955"/>
<path d="M99.7258 10.6655H96.2504L93.4115 7.9852L90.5699 10.6655H87.0945L88.8358 9.02966L91.6774 6.35249L93.4115 4.71979L95.1429 6.35249L97.9845 9.02966L99.7258 10.6655Z" fill="#327955"/>
</g>
<defs>
<clipPath id="clip0_4074_8069">
<rect width="132" height="26" fill="white"/>
</clipPath>
</defs>
</svg>
