<svg width="18" height="18" viewBox="0 0 18 18" fill="none" xmlns="http://www.w3.org/2000/svg">
<path d="M16.5 0H1.5C1.10218 0 0.720644 0.158035 0.43934 0.43934C0.158035 0.720644 0 1.10218 0 1.5V16.5C0 16.8978 0.158035 17.2794 0.43934 17.5607C0.720644 17.842 1.10218 18 1.5 18H16.5C16.8978 18 17.2794 17.842 17.5607 17.5607C17.842 17.2794 18 16.8978 18 16.5V1.5C18 1.10218 17.842 0.720644 17.5607 0.43934C17.2794 0.158035 16.8978 0 16.5 0ZM16.5 16.5H1.5V1.5H16.5V16.5ZM12.5306 6.53063L10.0603 9L12.5306 11.4694C12.6003 11.5391 12.6556 11.6218 12.6933 11.7128C12.731 11.8039 12.7504 11.9015 12.7504 12C12.7504 12.0985 12.731 12.1961 12.6933 12.2872C12.6556 12.3782 12.6003 12.4609 12.5306 12.5306C12.4609 12.6003 12.3782 12.6556 12.2872 12.6933C12.1961 12.731 12.0985 12.7504 12 12.7504C11.9015 12.7504 11.8039 12.731 11.7128 12.6933C11.6218 12.6556 11.5391 12.6003 11.4694 12.5306L9 10.0603L6.53063 12.5306C6.46094 12.6003 6.37822 12.6556 6.28717 12.6933C6.19613 12.731 6.09855 12.7504 6 12.7504C5.90145 12.7504 5.80387 12.731 5.71283 12.6933C5.62178 12.6556 5.53906 12.6003 5.46937 12.5306C5.39969 12.4609 5.34442 12.3782 5.3067 12.2872C5.26899 12.1961 5.24958 12.0985 5.24958 12C5.24958 11.9015 5.26899 11.8039 5.3067 11.7128C5.34442 11.6218 5.39969 11.5391 5.46937 11.4694L7.93969 9L5.46937 6.53063C5.32864 6.38989 5.24958 6.19902 5.24958 6C5.24958 5.80098 5.32864 5.61011 5.46937 5.46937C5.61011 5.32864 5.80098 5.24958 6 5.24958C6.19902 5.24958 6.38989 5.32864 6.53063 5.46937L9 7.93969L11.4694 5.46937C11.5391 5.39969 11.6218 5.34442 11.7128 5.3067C11.8039 5.26899 11.9015 5.24958 12 5.24958C12.0985 5.24958 12.1961 5.26899 12.2872 5.3067C12.3782 5.34442 12.4609 5.39969 12.5306 5.46937C12.6003 5.53906 12.6556 5.62178 12.6933 5.71283C12.731 5.80387 12.7504 5.90145 12.7504 6C12.7504 6.09855 12.731 6.19613 12.6933 6.28717C12.6556 6.37822 12.6003 6.46094 12.5306 6.53063Z" fill="#333333"/>
</svg>
