<svg width="24" height="24" viewBox="0 0 24 24" fill="none" xmlns="http://www.w3.org/2000/svg">
<path d="M20.5165 11.2719L24 7.78842L17.4684 1.25684L16.3935 2.33171L12.9421 2.33495L12.143 3.13402H8.78253L7.16233 1.51383L0 8.67617L4.08785 12.7514C3.87807 12.8517 3.68142 12.9882 3.50788 13.1617L2.77848 13.8912C1.64603 15.0015 2.15861 16.9834 3.67785 17.4077C3.30438 18.9317 4.7011 20.3279 6.22461 19.9544C6.54566 21.1059 7.84034 21.7662 8.96591 21.3474C9.61869 23.1296 12.0622 23.226 12.8775 21.5188C14.0001 22.4325 15.7369 21.9331 16.1967 20.5542C17.311 20.9308 18.5626 20.2658 18.876 19.1394C20.4001 19.5166 21.7975 18.1064 21.4214 16.5939C22.293 16.3568 22.958 15.4834 22.9398 14.5691C22.9398 14.0055 22.7203 13.4756 22.3218 13.0771L20.5165 11.2719ZM16.9766 3.73785L17.4684 3.24618L22.0107 7.78847L19.5219 10.2773L14.648 5.40339L13.1925 6.85886C12.3209 7.73052 10.9927 7.87432 9.9704 7.29033L13.5253 3.74109L16.9766 3.73785ZM3.77313 14.8858L4.50253 14.1563C4.77678 13.8821 5.22297 13.8821 5.49718 14.1563L5.49723 14.1564C5.77143 14.4306 5.77143 14.8768 5.49723 15.151L4.76778 15.8805C4.08081 16.5128 3.14065 15.5728 3.77313 14.8858ZM5.23193 18.4003C4.95918 18.1384 4.95904 17.6675 5.23193 17.4056L6.49183 16.1457C6.62466 16.0129 6.80129 15.9397 6.98913 15.9397C7.60834 15.9345 7.92779 16.7043 7.48676 17.1401C7.48666 17.1402 7.48657 17.1403 7.48648 17.1404C7.48516 17.1418 6.22658 18.4003 6.22658 18.4003C5.9648 18.6732 5.49371 18.6732 5.23193 18.4003ZM7.75173 19.8591C7.47747 19.5849 7.47747 19.1387 7.75173 18.8645L8.48117 18.135C8.75542 17.8608 9.20162 17.8608 9.47582 18.135C9.75003 18.4093 9.75003 18.8554 9.47582 19.1297L8.74642 19.8591C8.47217 20.1334 8.02598 20.1334 7.75173 19.8591ZM11.4655 21.1186C11.2062 21.4053 10.7227 21.4139 10.4549 21.1345C10.005 20.6878 10.3489 19.9165 10.9678 19.9187C11.5854 19.9145 11.9078 20.6782 11.4655 21.1186ZM21.3272 15.0665C21.0653 15.3393 20.5943 15.3393 20.3325 15.0665L18.5936 13.3275L17.5989 14.3222L19.8684 16.5916C20.1426 16.8658 20.1426 17.312 19.8684 17.5863C19.5941 17.8605 19.1479 17.8605 18.8737 17.5863L16.6043 15.3168C16.3564 15.5647 15.8575 16.0636 15.6097 16.3115L17.3486 18.0505C17.7897 18.4859 17.4709 19.2563 16.8513 19.2511C16.6634 19.2511 16.4868 19.178 16.3539 19.0451L14.615 17.3062C14.3671 17.5541 13.8682 18.053 13.6204 18.3008L14.6962 19.3767C14.8291 19.5095 14.9022 19.6862 14.9022 19.874C14.9073 20.4936 14.1372 20.8125 13.7015 20.3713L12.4599 19.1297C12.0889 18.7586 11.604 18.543 11.084 18.515C11.0475 17.4707 10.1388 16.5628 9.0948 16.5268C9.06226 15.4959 8.15614 14.5703 7.10537 14.5364C7.0777 14.0355 6.87317 13.5425 6.49112 13.161L6.49117 13.161L1.99085 8.67462L7.16229 3.50318L8.19979 4.54073H10.7343L7.91359 7.35569L8.41145 7.85351C10.0038 9.44589 12.5948 9.44589 14.1872 7.85351L14.648 7.39268L21.3271 14.0718C21.6014 14.346 21.6014 14.7922 21.3272 15.0665Z" fill="#327955"/>
</svg>
