<svg width="24" height="24" viewBox="0 0 24 24" fill="none" xmlns="http://www.w3.org/2000/svg">
<path d="M3.75293 5.06299H20.2469" stroke="#327955" stroke-width="1.40625" stroke-miterlimit="10"/>
<path d="M0.703125 18.9354V5.06323C0.703125 4.25783 1.35605 3.60486 2.1615 3.60486H3.75305V17.477H2.1615C1.35605 17.477 0.703125 18.13 0.703125 18.9354ZM0.703125 18.9354C0.703125 19.7408 1.35605 20.3938 2.1615 20.3938H21.8385C22.644 20.3938 23.2969 19.7409 23.2969 18.9354C23.2969 18.13 22.644 17.477 21.8385 17.477H20.247V3.60491H21.8385C22.644 3.60491 23.2969 4.25783 23.2969 5.06328V18.9355" stroke="#327955" stroke-width="1.40625" stroke-miterlimit="10"/>
<path d="M12.8407 8.05225H16.6953V17.4408H7.30469V8.05225H11.1378" stroke="#327955" stroke-width="1.40625" stroke-miterlimit="10"/>
<path d="M10.4476 13.3264V11.2693H7.30469V17.4403H10.4476V14.7227" stroke="#327955" stroke-width="1.40625" stroke-miterlimit="10"/>
<path d="M13.5605 14.7227V17.4403H16.6955V11.2224H13.5605V13.3264" stroke="#327955" stroke-width="1.40625" stroke-miterlimit="10"/>
</svg>
