<svg width="7" height="5" viewBox="0 0 7 5" fill="none" xmlns="http://www.w3.org/2000/svg">
<path d="M6.17701 0.427014L2.17701 4.42701C2.1538 4.45026 2.12622 4.4687 2.09587 4.48128C2.06552 4.49386 2.03299 4.50034 2.00014 4.50034C1.96729 4.50034 1.93475 4.49386 1.9044 4.48128C1.87405 4.4687 1.84648 4.45026 1.82326 4.42701L0.073264 2.67701C0.0263538 2.6301 0 2.56648 0 2.50014C0 2.4338 0.0263538 2.37017 0.073264 2.32326C0.120174 2.27635 0.183798 2.25 0.250139 2.25C0.31648 2.25 0.380104 2.27635 0.427014 2.32326L2.00014 3.8967L5.82326 0.0732639C5.87017 0.0263537 5.9338 -4.94279e-10 6.00014 0C6.06648 4.94279e-10 6.1301 0.0263537 6.17701 0.0732639C6.22392 0.120174 6.25028 0.183798 6.25028 0.250139C6.25028 0.31648 6.22392 0.380104 6.17701 0.427014Z" fill="#333333"/>
</svg>
