<svg width="65" height="65" viewBox="0 0 65 65" fill="none" xmlns="http://www.w3.org/2000/svg">
<path d="M32.5 0C26.0721 0 19.7886 1.90609 14.444 5.47724C9.09938 9.04838 4.93378 14.1242 2.47393 20.0628C0.0140817 26.0014 -0.629527 32.5361 0.624493 38.8404C1.87851 45.1448 4.97384 50.9358 9.51904 55.481C14.0643 60.0262 19.8552 63.1215 26.1596 64.3755C32.464 65.6295 38.9986 64.9859 44.9372 62.5261C50.8758 60.0662 55.9516 55.9006 59.5228 50.556C63.0939 45.2114 65 38.9279 65 32.5C64.9909 23.8833 61.5639 15.622 55.4709 9.52908C49.378 3.43612 41.1168 0.00909943 32.5 0ZM45.1719 34.5563L28.9219 45.8063C28.5467 46.0657 28.1078 46.2175 27.6525 46.2453C27.1973 46.2731 26.7431 46.1759 26.3391 45.9641C25.9352 45.7523 25.5969 45.434 25.3608 45.0438C25.1248 44.6535 25 44.2061 25 43.75V21.25C25 20.7939 25.1248 20.3465 25.3608 19.9562C25.5969 19.5659 25.9352 19.2477 26.3391 19.0359C26.7431 18.8241 27.1973 18.7269 27.6525 18.7547C28.1078 18.7825 28.5467 18.9343 28.9219 19.1937L45.1719 30.4437C45.5045 30.6737 45.7763 30.981 45.9641 31.3391C46.1519 31.6973 46.25 32.0956 46.25 32.5C46.25 32.9044 46.1519 33.3027 45.9641 33.6609C45.7763 34.019 45.5045 34.3263 45.1719 34.5563Z" fill="white"/>
</svg>
