<svg width="9" height="17" viewBox="0 0 9 17" fill="none" xmlns="http://www.w3.org/2000/svg">
<path d="M8.78104 7.71969L1.28105 0.219689C1.21136 0.150007 1.12864 0.0947325 1.03759 0.0570204C0.946547 0.0193083 0.848966 -0.000102848 0.75042 -0.000102866C0.651874 -0.000102883 0.554292 0.0193082 0.463248 0.0570203C0.372203 0.0947323 0.289477 0.150007 0.219794 0.219688C0.150112 0.289372 0.0948366 0.372097 0.0571246 0.463142C0.0194126 0.554187 2.77112e-06 0.651769 2.75389e-06 0.750315C2.73666e-06 0.848861 0.0194125 0.946443 0.0571245 1.03749C0.0948364 1.12853 0.150112 1.21126 0.219794 1.28094L7.19011 8.25032L0.219792 15.2197C0.0790613 15.3604 1.64523e-07 15.5513 1.31207e-07 15.7503C9.78916e-08 15.9493 0.0790612 16.1402 0.219792 16.2809C0.360522 16.4217 0.551394 16.5007 0.750417 16.5007C0.94944 16.5007 1.14031 16.4217 1.28104 16.2809L8.78104 8.78094C8.85078 8.71129 8.9061 8.62857 8.94384 8.53752C8.98158 8.44647 9.00101 8.34888 9.00101 8.25032C9.00101 8.15175 8.98158 8.05416 8.94384 7.96311C8.9061 7.87206 8.85078 7.78935 8.78104 7.71969Z" fill="#333333"/>
</svg>
