<svg width="24" height="24" viewBox="0 0 24 24" fill="none" xmlns="http://www.w3.org/2000/svg">
<path d="M22.9209 7.16891L12.0002 0L1.07959 7.16891V11.7129H1.94191V24H22.0585V11.7129H22.9208V7.16891H22.9209ZM9.19844 22.5913V14.9842H14.802V22.5913H9.19844ZM12.0002 3.75681L2.48831 10.001V7.92933L12.0002 1.68515L21.5121 7.92928V10.0009L12.0002 3.75681ZM20.6498 18.0834H16.2107V14.9842H20.6498V18.0834ZM3.35063 14.9842H7.78972V18.0834H3.35063V14.9842ZM3.35063 19.4921H7.78972V22.5913H3.35063V19.4921ZM16.2107 19.4921H20.6498V22.5913H16.2107V19.4921ZM20.6498 13.5755H3.35063V11.12L12.0002 5.44196L20.6498 11.12V13.5755H20.6498Z" fill="#327955"/>
<path d="M12.501 18.0834H13.9097V19.4921H12.501V18.0834Z" fill="#327955"/>
<path d="M9.58398 9.99685C9.58398 11.3291 10.6678 12.4129 12 12.4129C13.3322 12.4129 14.4161 11.3291 14.4161 9.99685C14.4161 8.66463 13.3322 7.58081 12 7.58081C10.6678 7.58081 9.58398 8.66463 9.58398 9.99685ZM13.0074 9.99685C13.0074 10.5523 12.5555 11.0042 12.0001 11.0042C11.4446 11.0042 10.9927 10.5523 10.9927 9.99685C10.9927 9.44139 11.4446 8.98953 12.0001 8.98953C12.5555 8.98953 13.0074 9.44139 13.0074 9.99685Z" fill="#327955"/>
</svg>
