<svg width="24" height="24" viewBox="0 0 24 24" fill="none" xmlns="http://www.w3.org/2000/svg">
<path d="M23.2969 12.0006V3.45972L0.702307 3.45972V12.0006L23.2969 12.0006Z" stroke="#327955" stroke-width="1.40543" stroke-miterlimit="10"/>
<path d="M2.59444 9.12797H0.702637V6.3313H4.12622" stroke="#327955" stroke-width="1.40543" stroke-miterlimit="10"/>
<path d="M18.9465 9.1283H6.42383" stroke="#327955" stroke-width="1.40543" stroke-miterlimit="10"/>
<path d="M10.7637 6.3313H23.2969V9.12797H20.6971" stroke="#327955" stroke-width="1.40543" stroke-miterlimit="10"/>
<path d="M6.42383 6.3313H9.22631" stroke="#327955" stroke-width="1.40543" stroke-miterlimit="10"/>
<path d="M6.42383 3.45972V12.0006" stroke="#327955" stroke-width="1.40543" stroke-miterlimit="10"/>
<path d="M0.702637 12.0004L0.702637 20.5413H23.2972V12.0004L0.702637 12.0004Z" stroke="#327955" stroke-width="1.40543" stroke-miterlimit="10"/>
<path d="M21.4058 14.8727H23.2976V17.6694H19.874" stroke="#327955" stroke-width="1.40543" stroke-miterlimit="10"/>
<path d="M5.05273 14.8727H17.5754" stroke="#327955" stroke-width="1.40543" stroke-miterlimit="10"/>
<path d="M13.2359 17.6694H0.702637V14.8727H3.30245" stroke="#327955" stroke-width="1.40543" stroke-miterlimit="10"/>
<path d="M17.5759 17.6697H14.7734" stroke="#327955" stroke-width="1.40543" stroke-miterlimit="10"/>
<path d="M17.5752 20.5409V12" stroke="#327955" stroke-width="1.40543" stroke-miterlimit="10"/>
<path d="M4.03271 9.12805H6.42448" stroke="#327955" stroke-width="1.40543" stroke-miterlimit="10"/>
<path d="M17.5752 14.8724H19.967" stroke="#327955" stroke-width="1.40543" stroke-miterlimit="10"/>
</svg>
