<svg width="24" height="24" viewBox="0 0 24 24" fill="none" xmlns="http://www.w3.org/2000/svg">
<path d="M21.9373 0.703247H2.0625V23.297H21.9373V0.703247Z" stroke="#327955" stroke-width="1.40623" stroke-miterlimit="10"/>
<path d="M8.6875 23.2971V0.703369" stroke="#327955" stroke-width="1.40623" stroke-miterlimit="10"/>
<path d="M15.3125 23.2971V0.703369" stroke="#327955" stroke-width="1.40623" stroke-miterlimit="10"/>
<path d="M8.6875 15.6208H15.3125" stroke="#327955" stroke-width="1.40623" stroke-miterlimit="10"/>
<path d="M2.0625 8.37927H8.68741" stroke="#327955" stroke-width="1.40623" stroke-miterlimit="10"/>
<path d="M15.3125 8.37927H21.9374" stroke="#327955" stroke-width="1.40623" stroke-miterlimit="10"/>
<path d="M11.9941 0.703369V7.49149C11.9941 8.63476 12.6096 9.68948 13.6049 10.2519L13.7014 10.3065C14.6967 10.869 15.3121 11.9237 15.3121 13.0669V15.6209" stroke="#327955" stroke-width="1.40623" stroke-miterlimit="10"/>
<path d="M5.36914 23.2968V16.5087C5.36914 15.3654 5.9846 14.3107 6.97989 13.7482L7.0764 13.6937C8.07173 13.1312 8.68715 12.0764 8.68715 10.9332V8.37927" stroke="#327955" stroke-width="1.40623" stroke-miterlimit="10"/>
<path d="M18.6191 23.2968V16.5087C18.6191 15.3654 19.2346 14.3107 20.2299 13.7482L20.3264 13.6937C21.3217 13.1312 21.9371 12.0764 21.9371 10.9332V8.37927" stroke="#327955" stroke-width="1.40623" stroke-miterlimit="10"/>
<path d="M5.38046 0.703369V2.23959C5.38046 3.25803 4.75173 4.17077 3.80018 4.53376L3.64278 4.59381C2.69118 4.9568 2.0625 5.86954 2.0625 6.88798V8.3792" stroke="#327955" stroke-width="1.40623" stroke-miterlimit="10"/>
<path d="M18.6306 0.703369V2.23959C18.6306 3.25803 18.0018 4.17077 17.0502 4.53376L16.8928 4.59381C15.9412 4.9568 15.3125 5.86954 15.3125 6.88798V8.3792" stroke="#327955" stroke-width="1.40623" stroke-miterlimit="10"/>
<path d="M8.6875 15.6212V17.1574C8.6875 18.1759 9.31623 19.0886 10.2678 19.4516L10.4252 19.5117C11.3768 19.8747 12.0056 20.7874 12.0056 21.8058V23.297" stroke="#327955" stroke-width="1.40623" stroke-miterlimit="10"/>
</svg>
