<svg width="24" height="24" viewBox="0 0 24 24" fill="none" xmlns="http://www.w3.org/2000/svg">
<g clip-path="url(#clip0_4091_2468)">
<mask id="mask0_4091_2468" style="mask-type:luminance" maskUnits="userSpaceOnUse" x="0" y="-1" width="24" height="25">
<path d="M0 -0.0012188H24V23.9988H0V-0.0012188Z" fill="white"/>
</mask>
<g mask="url(#mask0_4091_2468)">
<path d="M6.16797 17.6707H9.8905M9.8905 17.6707C10.8153 17.6707 11.7274 17.886 12.5545 18.2996L12.8515 18.448C13.6787 18.8616 14.5908 19.0769 15.5155 19.0769C16.4403 19.0769 17.3524 18.8616 18.1795 18.448L18.4765 18.2996C19.3037 17.886 20.2626 17.6707 21.1874 17.6707M9.8905 17.6707C10.7909 17.6707 11.6545 17.313 12.2911 16.6763L13.1149 15.8525C13.7515 15.2159 14.6151 14.8582 15.5155 14.8582C16.4159 14.8582 17.2795 15.2159 17.9161 15.8525L18.7399 16.6763C19.3765 17.313 20.287 17.6707 21.1874 17.6707M21.1874 17.6707H23.1367" stroke="#327955" stroke-width="1.40625" stroke-miterlimit="10"/>
<path d="M6.16797 20.4832H7.27244C9.81916 20.4832 12.3085 21.4949 14.1092 23.2957" stroke="#327955" stroke-width="1.40625" stroke-miterlimit="10"/>
<path d="M16.9219 23.2954C18.4459 21.7714 20.4763 20.8125 22.5937 20.5538L23.124 20.536" stroke="#327955" stroke-width="1.40625" stroke-miterlimit="10"/>
<path d="M6.32812 19.0771C6.32812 21.4071 5.06892 23.2959 3.51562 23.2959C1.96233 23.2959 0.703125 21.4071 0.703125 19.0771C0.703125 16.7472 1.96233 14.8584 3.51562 14.8584C5.06892 14.8584 6.32812 16.7472 6.32812 19.0771Z" stroke="#327955" stroke-width="1.40625" stroke-miterlimit="10"/>
<path d="M3.51562 14.8582H20.4375C21.9908 14.8582 23.2969 16.7469 23.2969 19.0769C23.2969 21.4069 21.9908 23.2957 20.4375 23.2957H3.51562" stroke="#327955" stroke-width="1.40625" stroke-miterlimit="10"/>
<path d="M3.51562 16.9675V21.1863" stroke="#327955" stroke-width="1.40625" stroke-miterlimit="10"/>
<path d="M10.5938 9.23291C10.5938 10.0095 11.2234 10.6392 12 10.6392C12.7766 10.6392 13.4062 10.0095 13.4062 9.23291C13.4062 8.45629 12.7766 7.82666 12 7.82666V4.96729" stroke="#327955" stroke-width="1.40625" stroke-miterlimit="10"/>
<path d="M12 10.6392L19.0312 14.8579" stroke="#327955" stroke-width="1.40625" stroke-miterlimit="10"/>
<path d="M4.92188 14.8579L12 10.6392" stroke="#327955" stroke-width="1.40625" stroke-miterlimit="10"/>
<path d="M9.1875 0.701416V3.56079L10.5938 4.96704H13.4062L14.8125 3.56079V0.701416H9.1875Z" stroke="#327955" stroke-width="1.40625" stroke-miterlimit="10"/>
</g>
</g>
<defs>
<clipPath id="clip0_4091_2468">
<rect width="24" height="24" fill="white"/>
</clipPath>
</defs>
</svg>
