<svg width="32" height="32" viewBox="0 0 32 32" fill="none" xmlns="http://www.w3.org/2000/svg">
<path d="M31.7119 18.7627L27.7119 6.7627C27.6094 6.45703 27.3232 6.25 27 6.25H5C4.67676 6.25 4.39062 6.45703 4.28809 6.7627L0.288086 18.7627C0.262695 18.8389 0.25 18.9189 0.25 19V25C0.25 25.4141 0.585938 25.75 1 25.75H31C31.4141 25.75 31.75 25.4141 31.75 25V19C31.75 18.9189 31.7373 18.8389 31.7119 18.7627ZM5.54102 7.75H26.459L29.9592 18.25H2.04077L5.54102 7.75ZM1.75 24.25V19.75H30.25V24.25H1.75Z" fill="#333333"/>
<path d="M4 22.75C4.41421 22.75 4.75 22.4142 4.75 22C4.75 21.5858 4.41421 21.25 4 21.25C3.58579 21.25 3.25 21.5858 3.25 22C3.25 22.4142 3.58579 22.75 4 22.75Z" fill="#333333"/>
<path d="M8 22.75C8.41421 22.75 8.75 22.4142 8.75 22C8.75 21.5858 8.41421 21.25 8 21.25C7.58579 21.25 7.25 21.5858 7.25 22C7.25 22.4142 7.58579 22.75 8 22.75Z" fill="#333333"/>
<path d="M12 22.75C12.4142 22.75 12.75 22.4142 12.75 22C12.75 21.5858 12.4142 21.25 12 21.25C11.5858 21.25 11.25 21.5858 11.25 22C11.25 22.4142 11.5858 22.75 12 22.75Z" fill="#333333"/>
<path d="M16 22.75C16.4142 22.75 16.75 22.4142 16.75 22C16.75 21.5858 16.4142 21.25 16 21.25C15.5858 21.25 15.25 21.5858 15.25 22C15.25 22.4142 15.5858 22.75 16 22.75Z" fill="#333333"/>
<path d="M20 22.75C20.4142 22.75 20.75 22.4142 20.75 22C20.75 21.5858 20.4142 21.25 20 21.25C19.5858 21.25 19.25 21.5858 19.25 22C19.25 22.4142 19.5858 22.75 20 22.75Z" fill="#333333"/>
<path d="M24 22.75C24.4142 22.75 24.75 22.4142 24.75 22C24.75 21.5858 24.4142 21.25 24 21.25C23.5858 21.25 23.25 21.5858 23.25 22C23.25 22.4142 23.5858 22.75 24 22.75Z" fill="#333333"/>
<path d="M28 22.75C28.4142 22.75 28.75 22.4142 28.75 22C28.75 21.5858 28.4142 21.25 28 21.25C27.5858 21.25 27.25 21.5858 27.25 22C27.25 22.4142 27.5858 22.75 28 22.75Z" fill="#333333"/>
</svg>
