<svg width="32" height="32" viewBox="0 0 32 32" fill="none" xmlns="http://www.w3.org/2000/svg">
<path d="M17.7776 0.420251C17.4825 0.149876 17.0967 -6.17986e-05 16.6966 7.01429e-07H15.3035C14.9034 -0.000374299 14.5177 0.149626 14.2229 0.420251L0.346125 13.1333C0.125813 13.3356 0.0003125 13.6209 0 13.92V30.9333C0 31.5224 0.477562 32 1.06669 32H30.9334C31.5225 32 32.0001 31.5224 32.0001 30.9333V13.92C31.9999 13.6208 31.8744 13.3352 31.6539 13.1328L17.7776 0.420251ZM17.0566 1.20694L28.8 11.9659V13.7179L16.5333 2.43256V1.06669H16.6965C16.8299 1.06644 16.9585 1.1165 17.0566 1.20694ZM10.6667 28.8V23.4667H21.3334V28.8H10.6667ZM3.2 28.8V23.4667H7.46669V28.8H3.2ZM3.2 21.3333H7.46669V22.4H3.2V21.3333ZM7.46669 20.2667H3.2V15.1675L7.46669 11.2422V20.2667ZM8.53331 22.9333V10.2608L9.6 9.2795V28.8H8.53331V22.9333ZM14.9333 10.6667H21.3333V11.7334H10.6667V10.6667H14.9333ZM10.6667 12.8H21.3334V20.2667H10.6667V12.8ZM10.6667 21.3333H21.3334V22.4H10.6667V21.3333ZM21.3333 9.6H17.6V4.86344L21.3333 8.29813V9.6ZM16 3.39094L16.5333 3.88163V9.6H15.4666V3.88163L16 3.39094ZM14.4 9.6H10.6667V8.29813L14.4 4.86344V9.6ZM22.4 22.9333V9.28L23.4667 10.2613V28.8H22.4V22.9333ZM24.5333 21.3333H28.8V22.4H24.5333V21.3333ZM28.8 20.2667H24.5333V11.2421L28.8 15.1674V20.2667ZM24.5333 23.4667H28.8V28.8H24.5333V23.4667ZM14.9434 1.20694C15.0415 1.1165 15.1701 1.06644 15.3034 1.06669H15.4666V2.43256L3.2 13.7179V11.9653L14.9434 1.20694ZM1.06669 13.92L2.13337 12.9424V30.9333H1.06669V13.92ZM3.2 29.8667H28.8V30.9334H3.2V29.8667ZM30.9333 30.9333H29.8666V12.9429L30.9333 13.92V30.9333Z" fill="#333333"/>
</svg>
