<svg width="32" height="32" viewBox="0 0 32 32" fill="none" xmlns="http://www.w3.org/2000/svg">
<path d="M31.9981 24.2997C31.9981 24.2909 31.9981 24.2831 31.9971 24.2744C31.9961 24.2685 31.9961 24.2626 31.9951 24.2568C31.9941 24.247 31.9922 24.2382 31.9912 24.2285C31.9902 24.2236 31.9902 24.2187 31.9883 24.2139C31.9864 24.2002 31.9834 24.1855 31.9805 24.1719L27.3125 5.50538C27.2392 5.2085 26.9726 5 26.666 5H5.33309C5.0274 5 4.76084 5.2085 4.68659 5.50538L0.0195626 24.1718C0.0156876 24.1855 0.0136876 24.2001 0.0107501 24.2138C0.00975006 24.2187 0.00975006 24.2236 0.00781255 24.2294C0.00681254 24.2382 0.00587503 24.247 0.00393752 24.2568C0.00393752 24.2627 0.00293752 24.2686 0.00200001 24.2744C0.00200001 24.2832 0.00100001 24.291 0.00100001 24.2997C0 24.3056 0 24.3124 0 24.3183C0 24.3232 0 24.3281 0 24.3329V26.3329C0 26.5488 0.104501 26.7519 0.280252 26.8769C0.457003 27.0019 0.682629 27.0341 0.886693 26.9628L4.48434 25.706L8.11517 26.9628C8.2558 27.0126 8.41011 27.0116 8.55267 26.9628L12.1659 25.706L15.7812 26.9628C15.9218 27.0126 16.077 27.0126 16.2187 26.9628L19.8329 25.706L23.4471 26.9628C23.5897 27.0126 23.744 27.0126 23.8846 26.9628L27.4998 25.706L31.1141 26.9628C31.1854 26.9873 31.2596 26.9999 31.3329 26.9999C31.4696 26.9999 31.6053 26.9579 31.7186 26.8769C31.8954 26.7519 31.9999 26.5488 31.9999 26.3329V24.3329C32 24.3281 32 24.3232 32 24.3183C31.999 24.3124 31.999 24.3056 31.9981 24.2997ZM30.3867 23.2988L27.7187 22.3701C27.577 22.3213 27.4228 22.3213 27.2812 22.3701L24.2256 23.4325L23.5625 18.122L26.2871 17.1797L29.1064 18.1757L30.3867 23.2988ZM27.6074 12.1797L28.7187 16.625L26.5107 15.8452C26.3691 15.7949 26.2128 15.7944 26.0703 15.8438L23.3926 16.77L22.8115 12.1182L25.0957 11.3178L27.6074 12.1797ZM26.1465 6.33345L27.2227 10.6382L25.3106 9.9819C25.168 9.93309 25.0147 9.93359 24.8731 9.98334L22.6426 10.7646L22.0879 6.33345H26.1465ZM16.666 6.33351H20.7442L21.2891 10.687L19.2481 9.98247C19.1075 9.93365 18.9532 9.93365 18.8125 9.98297L16.666 10.729V6.33351ZM16.666 12.1407L19.0313 11.3179L21.4727 12.1617L22.0381 16.6802L19.6494 15.8448C19.5078 15.7949 19.3526 15.7949 19.2109 15.8443L16.666 16.729V12.1407ZM16.666 18.1405L19.4287 17.1797L22.2226 18.1571L22.8711 23.3505L20.0527 22.37C19.9102 22.3212 19.7559 22.3212 19.6142 22.37L16.666 23.3954V18.1405ZM11.2549 6.33351H15.333V10.729L13.1875 9.98297C13.0469 9.93365 12.8926 9.93365 12.751 9.98247L10.7109 10.687L11.2549 6.33351ZM15.3331 18.1406V23.3955L12.3848 22.37C12.2442 22.3212 12.0899 22.3212 11.9473 22.37L9.12799 23.3505L9.77743 18.1591L12.5704 17.1798L15.3331 18.1406ZM10.5264 12.1616L12.9678 11.3178L15.333 12.1406V16.729L12.789 15.8443C12.6464 15.7949 12.4921 15.7949 12.3496 15.8448L9.96093 16.6817L10.5264 12.1616ZM5.8536 6.33351H9.91118L9.35749 10.7647L7.12698 9.9834C6.98535 9.93359 6.8311 9.93309 6.68948 9.98197L4.7774 10.6382L5.8536 6.33351ZM4.39265 12.1797L6.90435 11.3179L9.18755 12.1182L8.60749 16.7686L5.92778 15.8438C5.78522 15.7945 5.63091 15.795 5.48834 15.8453L3.28133 16.6251L4.39265 12.1797ZM2.89264 18.1756L5.71297 17.1796L8.43755 18.12L7.77348 23.4335L4.70222 22.37C4.6309 22.3456 4.55771 22.3329 4.48446 22.3329C4.41021 22.3329 4.33503 22.3456 4.26377 22.37L1.61338 23.2968L2.89264 18.1756ZM30.6659 25.3956L27.7187 24.3701C27.5771 24.3212 27.4228 24.3212 27.2812 24.3701L23.666 25.6269L20.0527 24.3701C19.9102 24.3212 19.7559 24.3212 19.6142 24.3701L16 25.6269L12.3848 24.3701C12.2442 24.3212 12.0899 24.3212 11.9473 24.3701L8.33211 25.6279L4.70222 24.3701C4.6309 24.3456 4.55771 24.3329 4.48446 24.3329C4.41021 24.3329 4.33503 24.3456 4.26377 24.3701L1.33313 25.3945V24.8066L4.48446 23.706L8.1153 24.9629V24.9639C8.12311 24.9658 8.12898 24.9677 8.1358 24.9697C8.14849 24.9736 8.16217 24.9776 8.17586 24.9805C8.18367 24.9824 8.19149 24.9844 8.1993 24.9854C8.21199 24.9883 8.22567 24.9912 8.23836 24.9932C8.24224 24.9932 8.24617 24.9942 8.25011 24.9951C8.25692 24.9961 8.2638 24.9961 8.26961 24.9971C8.27449 24.9971 8.27842 24.9971 8.2833 24.9981C8.29992 24.9991 8.31649 25 8.33405 25C8.3448 25 8.35555 24.999 8.36724 24.9981C8.37505 24.9981 8.38286 24.9981 8.39067 24.9971C8.40242 24.9961 8.41411 24.9941 8.4268 24.9932C8.43361 24.9922 8.44049 24.9912 8.4473 24.9902C8.45905 24.9883 8.47074 24.9854 8.48242 24.9824C8.49024 24.9805 8.49705 24.9795 8.50392 24.9776C8.51567 24.9746 8.52542 24.9707 8.53711 24.9678C8.54199 24.9659 8.54686 24.9649 8.55274 24.9629L12.166 23.7061L15.7812 24.9629C15.7832 24.9639 15.7871 24.9649 15.79 24.9659C15.7988 24.9688 15.8086 24.9717 15.8183 24.9747C15.8291 24.9776 15.8398 24.9796 15.8496 24.9825C15.8593 24.9844 15.8682 24.9864 15.877 24.9884C15.8897 24.9903 15.9023 24.9922 15.9141 24.9942C15.9219 24.9952 15.9297 24.9962 15.9375 24.9972C15.959 24.9991 15.9785 25.0001 16 25.0001C16.0205 25.0001 16.041 24.9991 16.0615 24.9972C16.0703 24.9962 16.0772 24.9952 16.085 24.9942C16.0977 24.9923 16.1094 24.9904 16.1221 24.9884C16.1309 24.9864 16.1407 24.9845 16.1504 24.9825C16.1602 24.9796 16.1699 24.9776 16.1807 24.9747C16.1904 24.9717 16.2002 24.9688 16.21 24.9659C16.2129 24.9649 16.2158 24.9639 16.2188 24.9629L19.8331 23.7061L23.4473 24.9629C23.4531 24.9649 23.457 24.9659 23.4629 24.9678C23.4736 24.9707 23.4844 24.9746 23.4961 24.9776C23.5029 24.9795 23.5098 24.9805 23.5176 24.9824C23.5293 24.9854 23.541 24.9883 23.5527 24.9902C23.5595 24.9912 23.5664 24.9922 23.5742 24.9932C23.586 24.9951 23.5976 24.9961 23.6093 24.9971C23.6191 24.9981 23.6308 24.9981 23.6406 24.999C23.6484 24.999 23.6572 25 23.666 25C23.6826 25 23.6991 24.999 23.7167 24.9981C23.7206 24.9971 23.7265 24.9971 23.7313 24.9961C23.7372 24.9961 23.7431 24.9951 23.7489 24.9951C23.7528 24.9941 23.7557 24.9932 23.7596 24.9932C23.7733 24.9912 23.788 24.9883 23.8016 24.9854C23.8085 24.9844 23.8163 24.9824 23.8241 24.9805C23.8368 24.9776 23.8505 24.9737 23.8631 24.9697C23.871 24.9678 23.8768 24.9659 23.8846 24.9629L27.4998 23.7061L30.6659 24.8077V25.3956Z" fill="#333333"/>
</svg>
